<svg xmlns="http://www.w3.org/2000/svg" xmlns:xlink="http://www.w3.org/1999/xlink" width="727" height="420" viewBox="0 0 727 420"><rect width="100%" height="100%" fill="#283c5a"/><text x="10" y="60" fill="#f6f1ea" font-family="sans-serif" font-size="16">americana (miter 10)</text><g transform="translate(190 40)"><svg xmlns="http://www.w3.org/2000/svg" xmlns:xlink="http://www.w3.org/1999/xlink" width="60" height="60" viewBox="0 0 20 20" role="img" aria-label="A 115" data-rule="default"><title>A 115</title><g transform="translate(0 0)"><path d="M4.0625 13.6117 L3.4785 11.4908 L1.4498 11.4908 L0.876 13.6117 L-0.2305 13.6117 L1.8391 6.2859 L3.0686 6.2859 L5.1691 13.6117 Z M2.6998 8.3555 Q2.5359 7.6588 2.4539 7.1977 Q2.3719 7.7613 2.2182 8.3453 L1.665 10.5482 L3.2633 10.5482 Z M9.2059 8.8371 Q9.2059 8.376 9.2469 7.4949 Q9.1342 7.6383 8.7654 8.0072 L8.0789 8.6424 L7.5051 8.0072 L9.3494 6.2961 L10.2408 6.2961 L10.2408 13.6117 L9.2059 13.6117 Z M13.2736 8.8371 Q13.2736 8.376 13.3145 7.4949 Q13.2018 7.6383 12.833 8.0072 L12.1465 8.6424 L11.5727 8.0072 L13.417 6.2961 L14.3084 6.2961 L14.3084 13.6117 L13.2736 13.6117 Z M17.833 9.0625 Q18.7141 9.0625 19.2418 9.6568 Q19.7695 10.251 19.7695 11.2449 Q19.7695 12.3924 19.165 13.0533 Q18.5605 13.7141 17.4436 13.7141 Q16.501 13.7141 15.9273 13.3658 L15.9273 12.3924 Q16.5932 12.8227 17.3924 12.8227 Q18.0277 12.8227 18.3709 12.4078 Q18.7141 11.9928 18.7141 11.2961 Q18.7141 9.9334 17.4129 9.9334 Q16.9621 9.9334 16.4293 10.0973 L16.0195 9.7695 L16.2551 6.2961 L19.3391 6.2961 L19.3391 7.2182 L17.126 7.2182 L16.9826 9.1547 Q17.4436 9.0625 17.833 9.0625 Z" fill="none" stroke="#f9f5f0" stroke-width="2" stroke-linejoin="miter" stroke-miterlimit="10"/><path d="M4.0625 13.6117 L3.4785 11.4908 L1.4498 11.4908 L0.876 13.6117 L-0.2305 13.6117 L1.8391 6.2859 L3.0686 6.2859 L5.1691 13.6117 Z M2.6998 8.3555 Q2.5359 7.6588 2.4539 7.1977 Q2.3719 7.7613 2.2182 8.3453 L1.665 10.5482 L3.2633 10.5482 Z M9.2059 8.8371 Q9.2059 8.376 9.2469 7.4949 Q9.1342 7.6383 8.7654 8.0072 L8.0789 8.6424 L7.5051 8.0072 L9.3494 6.2961 L10.2408 6.2961 L10.2408 13.6117 L9.2059 13.6117 Z M13.2736 8.8371 Q13.2736 8.376 13.3145 7.4949 Q13.2018 7.6383 12.833 8.0072 L12.1465 8.6424 L11.5727 8.0072 L13.417 6.2961 L14.3084 6.2961 L14.3084 13.6117 L13.2736 13.6117 Z M17.833 9.0625 Q18.7141 9.0625 19.2418 9.6568 Q19.7695 10.251 19.7695 11.2449 Q19.7695 12.3924 19.165 13.0533 Q18.5605 13.7141 17.4436 13.7141 Q16.501 13.7141 15.9273 13.3658 L15.9273 12.3924 Q16.5932 12.8227 17.3924 12.8227 Q18.0277 12.8227 18.3709 12.4078 Q18.7141 11.9928 18.7141 11.2961 Q18.7141 9.9334 17.4129 9.9334 Q16.9621 9.9334 16.4293 10.0973 L16.0195 9.7695 L16.2551 6.2961 L19.3391 6.2961 L19.3391 7.2182 L17.126 7.2182 L16.9826 9.1547 Q17.4436 9.0625 17.833 9.0625 Z" fill="#000000"/></g></svg></g><g transform="translate(262 40)"><svg xmlns="http://www.w3.org/2000/svg" xmlns:xlink="http://www.w3.org/1999/xlink" width="60" height="60" viewBox="0 0 20 20" role="img" aria-label="A100" data-rule="default"><title>A100</title><g transform="translate(0 0)"><path d="M4.255 13.8408 L3.6417 11.6138 L1.5116 11.6138 L0.9091 13.8408 L-0.2528 13.8408 L1.9204 6.1485 L3.2114 6.1485 L5.4169 13.8408 Z M2.8241 8.3217 Q2.652 7.5901 2.5659 7.106 Q2.4798 7.6977 2.3185 8.3109 L1.7375 10.624 L3.4158 10.624 Z M7.4395 8.8273 Q7.4395 8.3432 7.4825 7.418 Q7.3642 7.5686 6.9769 7.9559 L6.2561 8.6229 L5.6536 7.9559 L7.5901 6.1592 L8.5261 6.1592 L8.5261 13.8408 L7.4395 13.8408 Z M14.4648 10 Q14.4648 11.9258 13.9591 12.9371 Q13.4535 13.9484 12.3238 13.9484 Q11.2587 13.9484 10.7262 13.0124 Q10.1937 12.0764 10.1937 10 Q10.1937 8.0204 10.7101 7.036 Q11.2265 6.0516 12.3238 6.0516 Q14.4648 6.0516 14.4648 10 Z M11.5331 7.73 Q11.291 8.4615 11.291 10 Q11.291 11.5385 11.5331 12.2647 Q11.7751 12.9909 12.3238 12.9909 Q12.8833 12.9909 13.1253 12.2647 Q13.3674 11.5385 13.3674 10 Q13.3674 8.4615 13.12 7.73 Q12.8725 6.9984 12.3238 6.9984 Q11.7751 6.9984 11.5331 7.73 Z M19.7472 10 Q19.7472 11.9258 19.2415 12.9371 Q18.7359 13.9484 17.6062 13.9484 Q16.5412 13.9484 16.0086 13.0124 Q15.4761 12.0764 15.4761 10 Q15.4761 8.0204 15.9925 7.036 Q16.5089 6.0516 17.6062 6.0516 Q19.7472 6.0516 19.7472 10 Z M16.8155 7.73 Q16.5734 8.4615 16.5734 10 Q16.5734 11.5385 16.8155 12.2647 Q17.0576 12.9909 17.6062 12.9909 Q18.1657 12.9909 18.4077 12.2647 Q18.6498 11.5385 18.6498 10 Q18.6498 8.4615 18.4024 7.73 Q18.1549 6.9984 17.6062 6.9984 Q17.0576 6.9984 16.8155 7.73 Z" fill="none" stroke="#f9f5f0" stroke-width="2" stroke-linejoin="miter" stroke-miterlimit="10"/><path d="M4.255 13.8408 L3.6417 11.6138 L1.5116 11.6138 L0.9091 13.8408 L-0.2528 13.8408 L1.9204 6.1485 L3.2114 6.1485 L5.4169 13.8408 Z M2.8241 8.3217 Q2.652 7.5901 2.5659 7.106 Q2.4798 7.6977 2.3185 8.3109 L1.7375 10.624 L3.4158 10.624 Z M7.4395 8.8273 Q7.4395 8.3432 7.4825 7.418 Q7.3642 7.5686 6.9769 7.9559 L6.2561 8.6229 L5.6536 7.9559 L7.5901 6.1592 L8.5261 6.1592 L8.5261 13.8408 L7.4395 13.8408 Z M14.4648 10 Q14.4648 11.9258 13.9591 12.9371 Q13.4535 13.9484 12.3238 13.9484 Q11.2587 13.9484 10.7262 13.0124 Q10.1937 12.0764 10.1937 10 Q10.1937 8.0204 10.7101 7.036 Q11.2265 6.0516 12.3238 6.0516 Q14.4648 6.0516 14.4648 10 Z M11.5331 7.73 Q11.291 8.4615 11.291 10 Q11.291 11.5385 11.5331 12.2647 Q11.7751 12.9909 12.3238 12.9909 Q12.8833 12.9909 13.1253 12.2647 Q13.3674 11.5385 13.3674 10 Q13.3674 8.4615 13.12 7.73 Q12.8725 6.9984 12.3238 6.9984 Q11.7751 6.9984 11.5331 7.73 Z M19.7472 10 Q19.7472 11.9258 19.2415 12.9371 Q18.7359 13.9484 17.6062 13.9484 Q16.5412 13.9484 16.0086 13.0124 Q15.4761 12.0764 15.4761 10 Q15.4761 8.0204 15.9925 7.036 Q16.5089 6.0516 17.6062 6.0516 Q19.7472 6.0516 19.7472 10 Z M16.8155 7.73 Q16.5734 8.4615 16.5734 10 Q16.5734 11.5385 16.8155 12.2647 Q17.0576 12.9909 17.6062 12.9909 Q18.1657 12.9909 18.4077 12.2647 Q18.6498 11.5385 18.6498 10 Q18.6498 8.4615 18.4024 7.73 Q18.1549 6.9984 17.6062 6.9984 Q17.0576 6.9984 16.8155 7.73 Z" fill="#000000"/></g></svg></g><g transform="translate(334 40)"><svg xmlns="http://www.w3.org/2000/svg" xmlns:xlink="http://www.w3.org/1999/xlink" width="60" height="60" viewBox="0 0 20 20" role="img" aria-label="A111" data-rule="default"><title>A111</title><g transform="translate(0 0)"><path d="M4.5342 14.441 L3.8261 11.8696 L1.3665 11.8696 L0.6708 14.441 L-0.6708 14.441 L1.8385 5.559 L3.3292 5.559 L5.8758 14.441 Z M2.882 8.0683 Q2.6832 7.2236 2.5839 6.6646 Q2.4845 7.3478 2.2981 8.0559 L1.6273 10.7267 L3.5652 10.7267 Z M8.2112 8.6522 Q8.2112 8.0932 8.2609 7.0248 Q8.1242 7.1988 7.677 7.646 L6.8447 8.4161 L6.1491 7.646 L8.3851 5.5714 L9.4658 5.5714 L9.4658 14.441 L8.2112 14.441 Z M13.1429 8.6522 Q13.1429 8.0932 13.1925 7.0248 Q13.0559 7.1988 12.6087 7.646 L11.7764 8.4161 L11.0807 7.646 L13.3168 5.5714 L14.3975 5.5714 L14.3975 14.441 L13.1429 14.441 Z M18.0745 8.6522 Q18.0745 8.0932 18.1242 7.0248 Q17.9876 7.1988 17.5404 7.646 L16.7081 8.4161 L16.0124 7.646 L18.2484 5.5714 L19.3292 5.5714 L19.3292 14.441 L18.0745 14.441 Z" fill="none" stroke="#f9f5f0" stroke-width="2" stroke-linejoin="miter" stroke-miterlimit="10"/><path d="M4.5342 14.441 L3.8261 11.8696 L1.3665 11.8696 L0.6708 14.441 L-0.6708 14.441 L1.8385 5.559 L3.3292 5.559 L5.8758 14.441 Z M2.882 8.0683 Q2.6832 7.2236 2.5839 6.6646 Q2.4845 7.3478 2.2981 8.0559 L1.6273 10.7267 L3.5652 10.7267 Z M8.2112 8.6522 Q8.2112 8.0932 8.2609 7.0248 Q8.1242 7.1988 7.677 7.646 L6.8447 8.4161 L6.1491 7.646 L8.3851 5.5714 L9.4658 5.5714 L9.4658 14.441 L8.2112 14.441 Z M13.1429 8.6522 Q13.1429 8.0932 13.1925 7.0248 Q13.0559 7.1988 12.6087 7.646 L11.7764 8.4161 L11.0807 7.646 L13.3168 5.5714 L14.3975 5.5714 L14.3975 14.441 L13.1429 14.441 Z M18.0745 8.6522 Q18.0745 8.0932 18.1242 7.0248 Q17.9876 7.1988 17.5404 7.646 L16.7081 8.4161 L16.0124 7.646 L18.2484 5.5714 L19.3292 5.5714 L19.3292 14.441 L18.0745 14.441 Z" fill="#000000"/></g></svg></g><g transform="translate(406 40)"><svg xmlns="http://www.w3.org/2000/svg" xmlns:xlink="http://www.w3.org/1999/xlink" width="60" height="60" viewBox="0 0 20 20" role="img" aria-label="M 5" data-rule="default"><title>M 5</title><g transform="translate(0 0)"><path d="M4.8665 14.6996 L2.49 6.8758 L2.4366 6.8758 Q2.53 8.251 2.53 9.0521 L2.53 14.6996 L1.2617 14.6996 L1.2617 5.1669 L3.1842 5.1669 L5.4673 12.6569 L5.5073 12.6569 L7.8037 5.1669 L9.7263 5.1669 L9.7263 14.6996 L8.4045 14.6996 L8.4045 9.0387 Q8.4045 8.4246 8.4846 6.8758 L8.4312 6.8758 L6.028 14.6996 Z M16.6555 8.7717 Q17.8037 8.7717 18.4913 9.5461 Q19.1789 10.3204 19.1789 11.6155 Q19.1789 13.1108 18.3912 13.972 Q17.6035 14.8331 16.1482 14.8331 Q14.9199 14.8331 14.1722 14.3792 L14.1722 13.1108 Q15.0401 13.6716 16.0814 13.6716 Q16.9092 13.6716 17.3565 13.1308 Q17.8037 12.5901 17.8037 11.6822 Q17.8037 9.9065 16.1081 9.9065 Q15.5207 9.9065 14.8264 10.1202 L14.2924 9.6929 L14.5995 5.1669 L18.6182 5.1669 L18.6182 6.3685 L15.7343 6.3685 L15.5474 8.8919 Q16.1482 8.7717 16.6555 8.7717 Z" fill="none" stroke="#f9f5f0" stroke-width="2" stroke-linejoin="miter" stroke-miterlimit="10"/><path d="M4.8665 14.6996 L2.49 6.8758 L2.4366 6.8758 Q2.53 8.251 2.53 9.0521 L2.53 14.6996 L1.2617 14.6996 L1.2617 5.1669 L3.1842 5.1669 L5.4673 12.6569 L5.5073 12.6569 L7.8037 5.1669 L9.7263 5.1669 L9.7263 14.6996 L8.4045 14.6996 L8.4045 9.0387 Q8.4045 8.4246 8.4846 6.8758 L8.4312 6.8758 L6.028 14.6996 Z M16.6555 8.7717 Q17.8037 8.7717 18.4913 9.5461 Q19.1789 10.3204 19.1789 11.6155 Q19.1789 13.1108 18.3912 13.972 Q17.6035 14.8331 16.1482 14.8331 Q14.9199 14.8331 14.1722 14.3792 L14.1722 13.1108 Q15.0401 13.6716 16.0814 13.6716 Q16.9092 13.6716 17.3565 13.1308 Q17.8037 12.5901 17.8037 11.6822 Q17.8037 9.9065 16.1081 9.9065 Q15.5207 9.9065 14.8264 10.1202 L14.2924 9.6929 L14.5995 5.1669 L18.6182 5.1669 L18.6182 6.3685 L15.7343 6.3685 L15.5474 8.8919 Q16.1482 8.7717 16.6555 8.7717 Z" fill="#000000"/></g></svg></g><g transform="translate(478 40)"><svg xmlns="http://www.w3.org/2000/svg" xmlns:xlink="http://www.w3.org/1999/xlink" width="60" height="60" viewBox="0 0 20 20" role="img" aria-label="V 7" data-rule="default"><title>V 7</title><g transform="translate(0 0)"><path d="M9.181 5.002 L6.409 14.998 L4.813 14.998 L2.069 5.002 L3.553 5.002 L5.191 11.386 Q5.471 12.394 5.611 13.458 Q5.779 12.38 6.045 11.372 L7.697 5.002 Z M13.059 14.998 L16.223 6.276 L12.191 6.276 L12.191 5.002 L17.693 5.002 L17.693 6.024 L14.557 14.998 Z" fill="none" stroke="#f9f5f0" stroke-width="2" stroke-linejoin="miter" stroke-miterlimit="10"/><path d="M9.181 5.002 L6.409 14.998 L4.813 14.998 L2.069 5.002 L3.553 5.002 L5.191 11.386 Q5.471 12.394 5.611 13.458 Q5.779 12.38 6.045 11.372 L7.697 5.002 Z M13.059 14.998 L16.223 6.276 L12.191 6.276 L12.191 5.002 L17.693 5.002 L17.693 6.024 L14.557 14.998 Z" fill="#000000"/></g></svg></g><g transform="translate(550 13)"><svg xmlns="http://www.w3.org/2000/svg" xmlns:xlink="http://www.w3.org/1999/xlink" width="60" height="87" viewBox="0 0 20 29" role="img" aria-label="ALT 1" data-rule="US:US:Alternate"><title>ALT 1</title><path d="M7.2256 7.7148 L6.6333 5.5638 L4.5759 5.5638 L3.994 7.7148 L2.8718 7.7148 L4.9708 0.2852 L6.2177 0.2852 L8.3478 7.7148 Z M5.8436 2.3842 Q5.6774 1.6776 5.5942 1.21 Q5.5111 1.7815 5.3552 2.3738 L4.7941 4.6079 L6.4151 4.6079 Z M9.1583 7.7148 L9.1583 0.2956 L10.2182 0.2956 L10.2182 6.7796 L12.5873 6.7796 L12.5873 7.7148 Z M15.341 7.7148 L14.2915 7.7148 L14.2915 1.2308 L12.6289 1.2308 L12.6289 0.2956 L17.0035 0.2956 L17.0035 1.2308 L15.341 1.2308 Z" fill="none" stroke="#f9f5f0" stroke-width="2" stroke-linejoin="miter" stroke-miterlimit="10"/><g transform="translate(0 9)"><svg width="20" height="20" viewBox="0 0 20 20" preserveAspectRatio="none" overflow="visible">
    <path fill="#ffffff" fill-rule="evenodd" stroke="#000000" stroke-miterlimit="3.864" stroke-linejoin="round" d="M 9.9997 0.5001 C 10.7716 1.1577 11.7725 1.5547 12.8661 1.5547 C 13.9596 1.5547 14.9605 1.1577 15.7324 0.5 L 19.4996 4.2672 C 18.8064 5.2526 18.3993 6.454 18.3993 7.7504 C 18.3993 8.6829 18.6098 9.566 18.986 10.3551 C 19.311 11.0373 19.4996 11.8147 19.4996 12.6208 C 19.4996 15.5155 17.153 17.862 14.2584 17.862 L 13.4357 17.862 C 12.0485 17.862 10.8106 18.5007 9.9997 19.5 C 9.1889 18.5007 7.9509 17.862 6.5637 17.862 L 5.7411 17.862 C 2.8463 17.862 0.4999 15.5154 0.4999 12.6208 C 0.4999 11.8148 0.6884 11.0373 1.0135 10.3551 C 1.3896 9.566 1.6002 8.6828 1.6002 7.7504 C 1.6002 6.454 1.1931 5.2527 0.4999 4.2672 L 4.2671 0.5 C 5.039 1.1576 6.0399 1.5547 7.1334 1.5547 C 8.227 1.5547 9.2278 1.1578 9.9998 0.5001 Z"/>
</svg>
<path d="M9.853 7.974 Q9.853 7.344 9.909 6.14 Q9.755 6.336 9.251 6.84 L8.313 7.708 L7.529 6.84 L10.049 4.502 L11.267 4.502 L11.267 14.498 L9.853 14.498 Z" fill="#000000"/></g><path d="M7.2256 7.7148 L6.6333 5.5638 L4.5759 5.5638 L3.994 7.7148 L2.8718 7.7148 L4.9708 0.2852 L6.2177 0.2852 L8.3478 7.7148 Z M5.8436 2.3842 Q5.6774 1.6776 5.5942 1.21 Q5.5111 1.7815 5.3552 2.3738 L4.7941 4.6079 L6.4151 4.6079 Z M9.1583 7.7148 L9.1583 0.2956 L10.2182 0.2956 L10.2182 6.7796 L12.5873 6.7796 L12.5873 7.7148 Z M15.341 7.7148 L14.2915 7.7148 L14.2915 1.2308 L12.6289 1.2308 L12.6289 0.2956 L17.0035 0.2956 L17.0035 1.2308 L15.341 1.2308 Z" fill="#000000"/></svg></g><g transform="translate(622 40)"><svg xmlns="http://www.w3.org/2000/svg" xmlns:xlink="http://www.w3.org/1999/xlink" width="93" height="60" viewBox="0 0 31 20" role="img" aria-label="609" data-rule="US:NJ:CR"><title>609</title><g transform="translate(0 0)"><path d="M15.6388 0.5 L2.5962 3.0846 A2 2 0 0 0 1.0531 5.5641 L4.7872 19.5 L26.4904 19.5 L26.4904 19.5 L30.2245 5.5641 A2 2 0 0 0 28.6814 3.0846 Z" fill="#003f87" stroke="#ffcd00" stroke-width="1" stroke-linejoin="miter" stroke-miterlimit="10"/><path d="M6.0558 10.506 Q6.0558 9.176 6.2448 8.147 Q6.4338 7.118 6.8608 6.299 Q7.2878 5.48 8.0438 5.046 Q8.7998 4.612 9.8638 4.612 Q10.4238 4.612 11.0258 4.738 L11.0258 5.97 Q10.5218 5.816 9.9338 5.816 Q7.5398 5.816 7.4138 9.512 L7.4698 9.512 Q8.0298 8.378 9.2618 8.378 Q10.3678 8.378 10.9838 9.239 Q11.5998 10.1 11.5998 11.528 Q11.5998 13.04 10.8928 13.964 Q10.1858 14.888 8.9118 14.888 Q7.5818 14.888 6.8188 13.754 Q6.0558 12.62 6.0558 10.506 Z M8.8978 13.656 Q9.5138 13.656 9.8568 13.131 Q10.1998 12.606 10.1998 11.556 Q10.1998 9.568 8.9118 9.568 Q8.2678 9.568 7.8758 10.058 Q7.4838 10.548 7.4838 11.22 Q7.4838 12.158 7.8478 12.907 Q8.2118 13.656 8.8978 13.656 Z M18.4178 9.75 Q18.4178 12.256 17.7598 13.572 Q17.1018 14.888 15.6318 14.888 Q14.2458 14.888 13.5528 13.67 Q12.8598 12.452 12.8598 9.75 Q12.8598 7.174 13.5318 5.893 Q14.2038 4.612 15.6318 4.612 Q18.4178 4.612 18.4178 9.75 Z M14.6028 6.796 Q14.2878 7.748 14.2878 9.75 Q14.2878 11.752 14.6028 12.697 Q14.9178 13.642 15.6318 13.642 Q16.3598 13.642 16.6748 12.697 Q16.9898 11.752 16.9898 9.75 Q16.9898 7.748 16.6678 6.796 Q16.3458 5.844 15.6318 5.844 Q14.9178 5.844 14.6028 6.796 Z M25.2358 8.952 Q25.2358 14.888 21.3998 14.888 Q20.7418 14.888 20.2238 14.748 L20.2238 13.516 Q20.6998 13.684 21.3438 13.684 Q23.7518 13.684 23.8778 9.988 L23.8078 9.988 Q23.2478 11.122 22.0158 11.122 Q20.9098 11.122 20.3008 10.268 Q19.6918 9.414 19.6918 7.986 Q19.6918 6.46 20.4058 5.536 Q21.1198 4.612 22.4218 4.612 Q23.7238 4.612 24.4798 5.739 Q25.2358 6.866 25.2358 8.952 Z M22.4078 5.844 Q21.7918 5.844 21.4348 6.383 Q21.0778 6.922 21.0778 7.958 Q21.0778 9.932 22.3798 9.932 Q23.0378 9.932 23.4158 9.421 Q23.7938 8.91 23.7938 8.224 Q23.7938 7.342 23.4578 6.6 Q23.1218 5.858 22.4078 5.844 Z" fill="#ffcd00"/></g></svg></g><text x="10" y="160" fill="#f6f1ea" font-family="sans-serif" font-size="16">round (default)</text><g transform="translate(190 140)"><svg xmlns="http://www.w3.org/2000/svg" xmlns:xlink="http://www.w3.org/1999/xlink" width="60" height="60" viewBox="0 0 20 20" role="img" aria-label="A 115" data-rule="default"><title>A 115</title><g transform="translate(0 0)"><path d="M4.0625 13.6117 L3.4785 11.4908 L1.4498 11.4908 L0.876 13.6117 L-0.2305 13.6117 L1.8391 6.2859 L3.0686 6.2859 L5.1691 13.6117 Z M2.6998 8.3555 Q2.5359 7.6588 2.4539 7.1977 Q2.3719 7.7613 2.2182 8.3453 L1.665 10.5482 L3.2633 10.5482 Z M9.2059 8.8371 Q9.2059 8.376 9.2469 7.4949 Q9.1342 7.6383 8.7654 8.0072 L8.0789 8.6424 L7.5051 8.0072 L9.3494 6.2961 L10.2408 6.2961 L10.2408 13.6117 L9.2059 13.6117 Z M13.2736 8.8371 Q13.2736 8.376 13.3145 7.4949 Q13.2018 7.6383 12.833 8.0072 L12.1465 8.6424 L11.5727 8.0072 L13.417 6.2961 L14.3084 6.2961 L14.3084 13.6117 L13.2736 13.6117 Z M17.833 9.0625 Q18.7141 9.0625 19.2418 9.6568 Q19.7695 10.251 19.7695 11.2449 Q19.7695 12.3924 19.165 13.0533 Q18.5605 13.7141 17.4436 13.7141 Q16.501 13.7141 15.9273 13.3658 L15.9273 12.3924 Q16.5932 12.8227 17.3924 12.8227 Q18.0277 12.8227 18.3709 12.4078 Q18.7141 11.9928 18.7141 11.2961 Q18.7141 9.9334 17.4129 9.9334 Q16.9621 9.9334 16.4293 10.0973 L16.0195 9.7695 L16.2551 6.2961 L19.3391 6.2961 L19.3391 7.2182 L17.126 7.2182 L16.9826 9.1547 Q17.4436 9.0625 17.833 9.0625 Z" fill="none" stroke="#f9f5f0" stroke-width="2" stroke-linejoin="round"/><path d="M4.0625 13.6117 L3.4785 11.4908 L1.4498 11.4908 L0.876 13.6117 L-0.2305 13.6117 L1.8391 6.2859 L3.0686 6.2859 L5.1691 13.6117 Z M2.6998 8.3555 Q2.5359 7.6588 2.4539 7.1977 Q2.3719 7.7613 2.2182 8.3453 L1.665 10.5482 L3.2633 10.5482 Z M9.2059 8.8371 Q9.2059 8.376 9.2469 7.4949 Q9.1342 7.6383 8.7654 8.0072 L8.0789 8.6424 L7.5051 8.0072 L9.3494 6.2961 L10.2408 6.2961 L10.2408 13.6117 L9.2059 13.6117 Z M13.2736 8.8371 Q13.2736 8.376 13.3145 7.4949 Q13.2018 7.6383 12.833 8.0072 L12.1465 8.6424 L11.5727 8.0072 L13.417 6.2961 L14.3084 6.2961 L14.3084 13.6117 L13.2736 13.6117 Z M17.833 9.0625 Q18.7141 9.0625 19.2418 9.6568 Q19.7695 10.251 19.7695 11.2449 Q19.7695 12.3924 19.165 13.0533 Q18.5605 13.7141 17.4436 13.7141 Q16.501 13.7141 15.9273 13.3658 L15.9273 12.3924 Q16.5932 12.8227 17.3924 12.8227 Q18.0277 12.8227 18.3709 12.4078 Q18.7141 11.9928 18.7141 11.2961 Q18.7141 9.9334 17.4129 9.9334 Q16.9621 9.9334 16.4293 10.0973 L16.0195 9.7695 L16.2551 6.2961 L19.3391 6.2961 L19.3391 7.2182 L17.126 7.2182 L16.9826 9.1547 Q17.4436 9.0625 17.833 9.0625 Z" fill="#000000"/></g></svg></g><g transform="translate(262 140)"><svg xmlns="http://www.w3.org/2000/svg" xmlns:xlink="http://www.w3.org/1999/xlink" width="60" height="60" viewBox="0 0 20 20" role="img" aria-label="A100" data-rule="default"><title>A100</title><g transform="translate(0 0)"><path d="M4.255 13.8408 L3.6417 11.6138 L1.5116 11.6138 L0.9091 13.8408 L-0.2528 13.8408 L1.9204 6.1485 L3.2114 6.1485 L5.4169 13.8408 Z M2.8241 8.3217 Q2.652 7.5901 2.5659 7.106 Q2.4798 7.6977 2.3185 8.3109 L1.7375 10.624 L3.4158 10.624 Z M7.4395 8.8273 Q7.4395 8.3432 7.4825 7.418 Q7.3642 7.5686 6.9769 7.9559 L6.2561 8.6229 L5.6536 7.9559 L7.5901 6.1592 L8.5261 6.1592 L8.5261 13.8408 L7.4395 13.8408 Z M14.4648 10 Q14.4648 11.9258 13.9591 12.9371 Q13.4535 13.9484 12.3238 13.9484 Q11.2587 13.9484 10.7262 13.0124 Q10.1937 12.0764 10.1937 10 Q10.1937 8.0204 10.7101 7.036 Q11.2265 6.0516 12.3238 6.0516 Q14.4648 6.0516 14.4648 10 Z M11.5331 7.73 Q11.291 8.4615 11.291 10 Q11.291 11.5385 11.5331 12.2647 Q11.7751 12.9909 12.3238 12.9909 Q12.8833 12.9909 13.1253 12.2647 Q13.3674 11.5385 13.3674 10 Q13.3674 8.4615 13.12 7.73 Q12.8725 6.9984 12.3238 6.9984 Q11.7751 6.9984 11.5331 7.73 Z M19.7472 10 Q19.7472 11.9258 19.2415 12.9371 Q18.7359 13.9484 17.6062 13.9484 Q16.5412 13.9484 16.0086 13.0124 Q15.4761 12.0764 15.4761 10 Q15.4761 8.0204 15.9925 7.036 Q16.5089 6.0516 17.6062 6.0516 Q19.7472 6.0516 19.7472 10 Z M16.8155 7.73 Q16.5734 8.4615 16.5734 10 Q16.5734 11.5385 16.8155 12.2647 Q17.0576 12.9909 17.6062 12.9909 Q18.1657 12.9909 18.4077 12.2647 Q18.6498 11.5385 18.6498 10 Q18.6498 8.4615 18.4024 7.73 Q18.1549 6.9984 17.6062 6.9984 Q17.0576 6.9984 16.8155 7.73 Z" fill="none" stroke="#f9f5f0" stroke-width="2" stroke-linejoin="round"/><path d="M4.255 13.8408 L3.6417 11.6138 L1.5116 11.6138 L0.9091 13.8408 L-0.2528 13.8408 L1.9204 6.1485 L3.2114 6.1485 L5.4169 13.8408 Z M2.8241 8.3217 Q2.652 7.5901 2.5659 7.106 Q2.4798 7.6977 2.3185 8.3109 L1.7375 10.624 L3.4158 10.624 Z M7.4395 8.8273 Q7.4395 8.3432 7.4825 7.418 Q7.3642 7.5686 6.9769 7.9559 L6.2561 8.6229 L5.6536 7.9559 L7.5901 6.1592 L8.5261 6.1592 L8.5261 13.8408 L7.4395 13.8408 Z M14.4648 10 Q14.4648 11.9258 13.9591 12.9371 Q13.4535 13.9484 12.3238 13.9484 Q11.2587 13.9484 10.7262 13.0124 Q10.1937 12.0764 10.1937 10 Q10.1937 8.0204 10.7101 7.036 Q11.2265 6.0516 12.3238 6.0516 Q14.4648 6.0516 14.4648 10 Z M11.5331 7.73 Q11.291 8.4615 11.291 10 Q11.291 11.5385 11.5331 12.2647 Q11.7751 12.9909 12.3238 12.9909 Q12.8833 12.9909 13.1253 12.2647 Q13.3674 11.5385 13.3674 10 Q13.3674 8.4615 13.12 7.73 Q12.8725 6.9984 12.3238 6.9984 Q11.7751 6.9984 11.5331 7.73 Z M19.7472 10 Q19.7472 11.9258 19.2415 12.9371 Q18.7359 13.9484 17.6062 13.9484 Q16.5412 13.9484 16.0086 13.0124 Q15.4761 12.0764 15.4761 10 Q15.4761 8.0204 15.9925 7.036 Q16.5089 6.0516 17.6062 6.0516 Q19.7472 6.0516 19.7472 10 Z M16.8155 7.73 Q16.5734 8.4615 16.5734 10 Q16.5734 11.5385 16.8155 12.2647 Q17.0576 12.9909 17.6062 12.9909 Q18.1657 12.9909 18.4077 12.2647 Q18.6498 11.5385 18.6498 10 Q18.6498 8.4615 18.4024 7.73 Q18.1549 6.9984 17.6062 6.9984 Q17.0576 6.9984 16.8155 7.73 Z" fill="#000000"/></g></svg></g><g transform="translate(334 140)"><svg xmlns="http://www.w3.org/2000/svg" xmlns:xlink="http://www.w3.org/1999/xlink" width="60" height="60" viewBox="0 0 20 20" role="img" aria-label="A111" data-rule="default"><title>A111</title><g transform="translate(0 0)"><path d="M4.5342 14.441 L3.8261 11.8696 L1.3665 11.8696 L0.6708 14.441 L-0.6708 14.441 L1.8385 5.559 L3.3292 5.559 L5.8758 14.441 Z M2.882 8.0683 Q2.6832 7.2236 2.5839 6.6646 Q2.4845 7.3478 2.2981 8.0559 L1.6273 10.7267 L3.5652 10.7267 Z M8.2112 8.6522 Q8.2112 8.0932 8.2609 7.0248 Q8.1242 7.1988 7.677 7.646 L6.8447 8.4161 L6.1491 7.646 L8.3851 5.5714 L9.4658 5.5714 L9.4658 14.441 L8.2112 14.441 Z M13.1429 8.6522 Q13.1429 8.0932 13.1925 7.0248 Q13.0559 7.1988 12.6087 7.646 L11.7764 8.4161 L11.0807 7.646 L13.3168 5.5714 L14.3975 5.5714 L14.3975 14.441 L13.1429 14.441 Z M18.0745 8.6522 Q18.0745 8.0932 18.1242 7.0248 Q17.9876 7.1988 17.5404 7.646 L16.7081 8.4161 L16.0124 7.646 L18.2484 5.5714 L19.3292 5.5714 L19.3292 14.441 L18.0745 14.441 Z" fill="none" stroke="#f9f5f0" stroke-width="2" stroke-linejoin="round"/><path d="M4.5342 14.441 L3.8261 11.8696 L1.3665 11.8696 L0.6708 14.441 L-0.6708 14.441 L1.8385 5.559 L3.3292 5.559 L5.8758 14.441 Z M2.882 8.0683 Q2.6832 7.2236 2.5839 6.6646 Q2.4845 7.3478 2.2981 8.0559 L1.6273 10.7267 L3.5652 10.7267 Z M8.2112 8.6522 Q8.2112 8.0932 8.2609 7.0248 Q8.1242 7.1988 7.677 7.646 L6.8447 8.4161 L6.1491 7.646 L8.3851 5.5714 L9.4658 5.5714 L9.4658 14.441 L8.2112 14.441 Z M13.1429 8.6522 Q13.1429 8.0932 13.1925 7.0248 Q13.0559 7.1988 12.6087 7.646 L11.7764 8.4161 L11.0807 7.646 L13.3168 5.5714 L14.3975 5.5714 L14.3975 14.441 L13.1429 14.441 Z M18.0745 8.6522 Q18.0745 8.0932 18.1242 7.0248 Q17.9876 7.1988 17.5404 7.646 L16.7081 8.4161 L16.0124 7.646 L18.2484 5.5714 L19.3292 5.5714 L19.3292 14.441 L18.0745 14.441 Z" fill="#000000"/></g></svg></g><g transform="translate(406 140)"><svg xmlns="http://www.w3.org/2000/svg" xmlns:xlink="http://www.w3.org/1999/xlink" width="60" height="60" viewBox="0 0 20 20" role="img" aria-label="M 5" data-rule="default"><title>M 5</title><g transform="translate(0 0)"><path d="M4.8665 14.6996 L2.49 6.8758 L2.4366 6.8758 Q2.53 8.251 2.53 9.0521 L2.53 14.6996 L1.2617 14.6996 L1.2617 5.1669 L3.1842 5.1669 L5.4673 12.6569 L5.5073 12.6569 L7.8037 5.1669 L9.7263 5.1669 L9.7263 14.6996 L8.4045 14.6996 L8.4045 9.0387 Q8.4045 8.4246 8.4846 6.8758 L8.4312 6.8758 L6.028 14.6996 Z M16.6555 8.7717 Q17.8037 8.7717 18.4913 9.5461 Q19.1789 10.3204 19.1789 11.6155 Q19.1789 13.1108 18.3912 13.972 Q17.6035 14.8331 16.1482 14.8331 Q14.9199 14.8331 14.1722 14.3792 L14.1722 13.1108 Q15.0401 13.6716 16.0814 13.6716 Q16.9092 13.6716 17.3565 13.1308 Q17.8037 12.5901 17.8037 11.6822 Q17.8037 9.9065 16.1081 9.9065 Q15.5207 9.9065 14.8264 10.1202 L14.2924 9.6929 L14.5995 5.1669 L18.6182 5.1669 L18.6182 6.3685 L15.7343 6.3685 L15.5474 8.8919 Q16.1482 8.7717 16.6555 8.7717 Z" fill="none" stroke="#f9f5f0" stroke-width="2" stroke-linejoin="round"/><path d="M4.8665 14.6996 L2.49 6.8758 L2.4366 6.8758 Q2.53 8.251 2.53 9.0521 L2.53 14.6996 L1.2617 14.6996 L1.2617 5.1669 L3.1842 5.1669 L5.4673 12.6569 L5.5073 12.6569 L7.8037 5.1669 L9.7263 5.1669 L9.7263 14.6996 L8.4045 14.6996 L8.4045 9.0387 Q8.4045 8.4246 8.4846 6.8758 L8.4312 6.8758 L6.028 14.6996 Z M16.6555 8.7717 Q17.8037 8.7717 18.4913 9.5461 Q19.1789 10.3204 19.1789 11.6155 Q19.1789 13.1108 18.3912 13.972 Q17.6035 14.8331 16.1482 14.8331 Q14.9199 14.8331 14.1722 14.3792 L14.1722 13.1108 Q15.0401 13.6716 16.0814 13.6716 Q16.9092 13.6716 17.3565 13.1308 Q17.8037 12.5901 17.8037 11.6822 Q17.8037 9.9065 16.1081 9.9065 Q15.5207 9.9065 14.8264 10.1202 L14.2924 9.6929 L14.5995 5.1669 L18.6182 5.1669 L18.6182 6.3685 L15.7343 6.3685 L15.5474 8.8919 Q16.1482 8.7717 16.6555 8.7717 Z" fill="#000000"/></g></svg></g><g transform="translate(478 140)"><svg xmlns="http://www.w3.org/2000/svg" xmlns:xlink="http://www.w3.org/1999/xlink" width="60" height="60" viewBox="0 0 20 20" role="img" aria-label="V 7" data-rule="default"><title>V 7</title><g transform="translate(0 0)"><path d="M9.181 5.002 L6.409 14.998 L4.813 14.998 L2.069 5.002 L3.553 5.002 L5.191 11.386 Q5.471 12.394 5.611 13.458 Q5.779 12.38 6.045 11.372 L7.697 5.002 Z M13.059 14.998 L16.223 6.276 L12.191 6.276 L12.191 5.002 L17.693 5.002 L17.693 6.024 L14.557 14.998 Z" fill="none" stroke="#f9f5f0" stroke-width="2" stroke-linejoin="round"/><path d="M9.181 5.002 L6.409 14.998 L4.813 14.998 L2.069 5.002 L3.553 5.002 L5.191 11.386 Q5.471 12.394 5.611 13.458 Q5.779 12.38 6.045 11.372 L7.697 5.002 Z M13.059 14.998 L16.223 6.276 L12.191 6.276 L12.191 5.002 L17.693 5.002 L17.693 6.024 L14.557 14.998 Z" fill="#000000"/></g></svg></g><g transform="translate(550 113)"><svg xmlns="http://www.w3.org/2000/svg" xmlns:xlink="http://www.w3.org/1999/xlink" width="60" height="87" viewBox="0 0 20 29" role="img" aria-label="ALT 1" data-rule="US:US:Alternate"><title>ALT 1</title><path d="M7.2256 7.7148 L6.6333 5.5638 L4.5759 5.5638 L3.994 7.7148 L2.8718 7.7148 L4.9708 0.2852 L6.2177 0.2852 L8.3478 7.7148 Z M5.8436 2.3842 Q5.6774 1.6776 5.5942 1.21 Q5.5111 1.7815 5.3552 2.3738 L4.7941 4.6079 L6.4151 4.6079 Z M9.1583 7.7148 L9.1583 0.2956 L10.2182 0.2956 L10.2182 6.7796 L12.5873 6.7796 L12.5873 7.7148 Z M15.341 7.7148 L14.2915 7.7148 L14.2915 1.2308 L12.6289 1.2308 L12.6289 0.2956 L17.0035 0.2956 L17.0035 1.2308 L15.341 1.2308 Z" fill="none" stroke="#f9f5f0" stroke-width="2" stroke-linejoin="round"/><g transform="translate(0 9)"><svg width="20" height="20" viewBox="0 0 20 20" preserveAspectRatio="none" overflow="visible">
    <path fill="#ffffff" fill-rule="evenodd" stroke="#000000" stroke-miterlimit="3.864" stroke-linejoin="round" d="M 9.9997 0.5001 C 10.7716 1.1577 11.7725 1.5547 12.8661 1.5547 C 13.9596 1.5547 14.9605 1.1577 15.7324 0.5 L 19.4996 4.2672 C 18.8064 5.2526 18.3993 6.454 18.3993 7.7504 C 18.3993 8.6829 18.6098 9.566 18.986 10.3551 C 19.311 11.0373 19.4996 11.8147 19.4996 12.6208 C 19.4996 15.5155 17.153 17.862 14.2584 17.862 L 13.4357 17.862 C 12.0485 17.862 10.8106 18.5007 9.9997 19.5 C 9.1889 18.5007 7.9509 17.862 6.5637 17.862 L 5.7411 17.862 C 2.8463 17.862 0.4999 15.5154 0.4999 12.6208 C 0.4999 11.8148 0.6884 11.0373 1.0135 10.3551 C 1.3896 9.566 1.6002 8.6828 1.6002 7.7504 C 1.6002 6.454 1.1931 5.2527 0.4999 4.2672 L 4.2671 0.5 C 5.039 1.1576 6.0399 1.5547 7.1334 1.5547 C 8.227 1.5547 9.2278 1.1578 9.9998 0.5001 Z"/>
</svg>
<path d="M9.853 7.974 Q9.853 7.344 9.909 6.14 Q9.755 6.336 9.251 6.84 L8.313 7.708 L7.529 6.84 L10.049 4.502 L11.267 4.502 L11.267 14.498 L9.853 14.498 Z" fill="#000000"/></g><path d="M7.2256 7.7148 L6.6333 5.5638 L4.5759 5.5638 L3.994 7.7148 L2.8718 7.7148 L4.9708 0.2852 L6.2177 0.2852 L8.3478 7.7148 Z M5.8436 2.3842 Q5.6774 1.6776 5.5942 1.21 Q5.5111 1.7815 5.3552 2.3738 L4.7941 4.6079 L6.4151 4.6079 Z M9.1583 7.7148 L9.1583 0.2956 L10.2182 0.2956 L10.2182 6.7796 L12.5873 6.7796 L12.5873 7.7148 Z M15.341 7.7148 L14.2915 7.7148 L14.2915 1.2308 L12.6289 1.2308 L12.6289 0.2956 L17.0035 0.2956 L17.0035 1.2308 L15.341 1.2308 Z" fill="#000000"/></svg></g><g transform="translate(622 140)"><svg xmlns="http://www.w3.org/2000/svg" xmlns:xlink="http://www.w3.org/1999/xlink" width="93" height="60" viewBox="0 0 31 20" role="img" aria-label="609" data-rule="US:NJ:CR"><title>609</title><g transform="translate(0 0)"><path d="M15.6388 0.5 L2.5962 3.0846 A2 2 0 0 0 1.0531 5.5641 L4.7872 19.5 L26.4904 19.5 L26.4904 19.5 L30.2245 5.5641 A2 2 0 0 0 28.6814 3.0846 Z" fill="#003f87" stroke="#ffcd00" stroke-width="1" stroke-linejoin="miter" stroke-miterlimit="10"/><path d="M6.0558 10.506 Q6.0558 9.176 6.2448 8.147 Q6.4338 7.118 6.8608 6.299 Q7.2878 5.48 8.0438 5.046 Q8.7998 4.612 9.8638 4.612 Q10.4238 4.612 11.0258 4.738 L11.0258 5.97 Q10.5218 5.816 9.9338 5.816 Q7.5398 5.816 7.4138 9.512 L7.4698 9.512 Q8.0298 8.378 9.2618 8.378 Q10.3678 8.378 10.9838 9.239 Q11.5998 10.1 11.5998 11.528 Q11.5998 13.04 10.8928 13.964 Q10.1858 14.888 8.9118 14.888 Q7.5818 14.888 6.8188 13.754 Q6.0558 12.62 6.0558 10.506 Z M8.8978 13.656 Q9.5138 13.656 9.8568 13.131 Q10.1998 12.606 10.1998 11.556 Q10.1998 9.568 8.9118 9.568 Q8.2678 9.568 7.8758 10.058 Q7.4838 10.548 7.4838 11.22 Q7.4838 12.158 7.8478 12.907 Q8.2118 13.656 8.8978 13.656 Z M18.4178 9.75 Q18.4178 12.256 17.7598 13.572 Q17.1018 14.888 15.6318 14.888 Q14.2458 14.888 13.5528 13.67 Q12.8598 12.452 12.8598 9.75 Q12.8598 7.174 13.5318 5.893 Q14.2038 4.612 15.6318 4.612 Q18.4178 4.612 18.4178 9.75 Z M14.6028 6.796 Q14.2878 7.748 14.2878 9.75 Q14.2878 11.752 14.6028 12.697 Q14.9178 13.642 15.6318 13.642 Q16.3598 13.642 16.6748 12.697 Q16.9898 11.752 16.9898 9.75 Q16.9898 7.748 16.6678 6.796 Q16.3458 5.844 15.6318 5.844 Q14.9178 5.844 14.6028 6.796 Z M25.2358 8.952 Q25.2358 14.888 21.3998 14.888 Q20.7418 14.888 20.2238 14.748 L20.2238 13.516 Q20.6998 13.684 21.3438 13.684 Q23.7518 13.684 23.8778 9.988 L23.8078 9.988 Q23.2478 11.122 22.0158 11.122 Q20.9098 11.122 20.3008 10.268 Q19.6918 9.414 19.6918 7.986 Q19.6918 6.46 20.4058 5.536 Q21.1198 4.612 22.4218 4.612 Q23.7238 4.612 24.4798 5.739 Q25.2358 6.866 25.2358 8.952 Z M22.4078 5.844 Q21.7918 5.844 21.4348 6.383 Q21.0778 6.922 21.0778 7.958 Q21.0778 9.932 22.3798 9.932 Q23.0378 9.932 23.4158 9.421 Q23.7938 8.91 23.7938 8.224 Q23.7938 7.342 23.4578 6.6 Q23.1218 5.858 22.4078 5.844 Z" fill="#ffcd00"/></g></svg></g><text x="10" y="260" fill="#f6f1ea" font-family="sans-serif" font-size="16">bevel</text><g transform="translate(190 240)"><svg xmlns="http://www.w3.org/2000/svg" xmlns:xlink="http://www.w3.org/1999/xlink" width="60" height="60" viewBox="0 0 20 20" role="img" aria-label="A 115" data-rule="default"><title>A 115</title><g transform="translate(0 0)"><path d="M4.0625 13.6117 L3.4785 11.4908 L1.4498 11.4908 L0.876 13.6117 L-0.2305 13.6117 L1.8391 6.2859 L3.0686 6.2859 L5.1691 13.6117 Z M2.6998 8.3555 Q2.5359 7.6588 2.4539 7.1977 Q2.3719 7.7613 2.2182 8.3453 L1.665 10.5482 L3.2633 10.5482 Z M9.2059 8.8371 Q9.2059 8.376 9.2469 7.4949 Q9.1342 7.6383 8.7654 8.0072 L8.0789 8.6424 L7.5051 8.0072 L9.3494 6.2961 L10.2408 6.2961 L10.2408 13.6117 L9.2059 13.6117 Z M13.2736 8.8371 Q13.2736 8.376 13.3145 7.4949 Q13.2018 7.6383 12.833 8.0072 L12.1465 8.6424 L11.5727 8.0072 L13.417 6.2961 L14.3084 6.2961 L14.3084 13.6117 L13.2736 13.6117 Z M17.833 9.0625 Q18.7141 9.0625 19.2418 9.6568 Q19.7695 10.251 19.7695 11.2449 Q19.7695 12.3924 19.165 13.0533 Q18.5605 13.7141 17.4436 13.7141 Q16.501 13.7141 15.9273 13.3658 L15.9273 12.3924 Q16.5932 12.8227 17.3924 12.8227 Q18.0277 12.8227 18.3709 12.4078 Q18.7141 11.9928 18.7141 11.2961 Q18.7141 9.9334 17.4129 9.9334 Q16.9621 9.9334 16.4293 10.0973 L16.0195 9.7695 L16.2551 6.2961 L19.3391 6.2961 L19.3391 7.2182 L17.126 7.2182 L16.9826 9.1547 Q17.4436 9.0625 17.833 9.0625 Z" fill="none" stroke="#f9f5f0" stroke-width="2" stroke-linejoin="bevel"/><path d="M4.0625 13.6117 L3.4785 11.4908 L1.4498 11.4908 L0.876 13.6117 L-0.2305 13.6117 L1.8391 6.2859 L3.0686 6.2859 L5.1691 13.6117 Z M2.6998 8.3555 Q2.5359 7.6588 2.4539 7.1977 Q2.3719 7.7613 2.2182 8.3453 L1.665 10.5482 L3.2633 10.5482 Z M9.2059 8.8371 Q9.2059 8.376 9.2469 7.4949 Q9.1342 7.6383 8.7654 8.0072 L8.0789 8.6424 L7.5051 8.0072 L9.3494 6.2961 L10.2408 6.2961 L10.2408 13.6117 L9.2059 13.6117 Z M13.2736 8.8371 Q13.2736 8.376 13.3145 7.4949 Q13.2018 7.6383 12.833 8.0072 L12.1465 8.6424 L11.5727 8.0072 L13.417 6.2961 L14.3084 6.2961 L14.3084 13.6117 L13.2736 13.6117 Z M17.833 9.0625 Q18.7141 9.0625 19.2418 9.6568 Q19.7695 10.251 19.7695 11.2449 Q19.7695 12.3924 19.165 13.0533 Q18.5605 13.7141 17.4436 13.7141 Q16.501 13.7141 15.9273 13.3658 L15.9273 12.3924 Q16.5932 12.8227 17.3924 12.8227 Q18.0277 12.8227 18.3709 12.4078 Q18.7141 11.9928 18.7141 11.2961 Q18.7141 9.9334 17.4129 9.9334 Q16.9621 9.9334 16.4293 10.0973 L16.0195 9.7695 L16.2551 6.2961 L19.3391 6.2961 L19.3391 7.2182 L17.126 7.2182 L16.9826 9.1547 Q17.4436 9.0625 17.833 9.0625 Z" fill="#000000"/></g></svg></g><g transform="translate(262 240)"><svg xmlns="http://www.w3.org/2000/svg" xmlns:xlink="http://www.w3.org/1999/xlink" width="60" height="60" viewBox="0 0 20 20" role="img" aria-label="A100" data-rule="default"><title>A100</title><g transform="translate(0 0)"><path d="M4.255 13.8408 L3.6417 11.6138 L1.5116 11.6138 L0.9091 13.8408 L-0.2528 13.8408 L1.9204 6.1485 L3.2114 6.1485 L5.4169 13.8408 Z M2.8241 8.3217 Q2.652 7.5901 2.5659 7.106 Q2.4798 7.6977 2.3185 8.3109 L1.7375 10.624 L3.4158 10.624 Z M7.4395 8.8273 Q7.4395 8.3432 7.4825 7.418 Q7.3642 7.5686 6.9769 7.9559 L6.2561 8.6229 L5.6536 7.9559 L7.5901 6.1592 L8.5261 6.1592 L8.5261 13.8408 L7.4395 13.8408 Z M14.4648 10 Q14.4648 11.9258 13.9591 12.9371 Q13.4535 13.9484 12.3238 13.9484 Q11.2587 13.9484 10.7262 13.0124 Q10.1937 12.0764 10.1937 10 Q10.1937 8.0204 10.7101 7.036 Q11.2265 6.0516 12.3238 6.0516 Q14.4648 6.0516 14.4648 10 Z M11.5331 7.73 Q11.291 8.4615 11.291 10 Q11.291 11.5385 11.5331 12.2647 Q11.7751 12.9909 12.3238 12.9909 Q12.8833 12.9909 13.1253 12.2647 Q13.3674 11.5385 13.3674 10 Q13.3674 8.4615 13.12 7.73 Q12.8725 6.9984 12.3238 6.9984 Q11.7751 6.9984 11.5331 7.73 Z M19.7472 10 Q19.7472 11.9258 19.2415 12.9371 Q18.7359 13.9484 17.6062 13.9484 Q16.5412 13.9484 16.0086 13.0124 Q15.4761 12.0764 15.4761 10 Q15.4761 8.0204 15.9925 7.036 Q16.5089 6.0516 17.6062 6.0516 Q19.7472 6.0516 19.7472 10 Z M16.8155 7.73 Q16.5734 8.4615 16.5734 10 Q16.5734 11.5385 16.8155 12.2647 Q17.0576 12.9909 17.6062 12.9909 Q18.1657 12.9909 18.4077 12.2647 Q18.6498 11.5385 18.6498 10 Q18.6498 8.4615 18.4024 7.73 Q18.1549 6.9984 17.6062 6.9984 Q17.0576 6.9984 16.8155 7.73 Z" fill="none" stroke="#f9f5f0" stroke-width="2" stroke-linejoin="bevel"/><path d="M4.255 13.8408 L3.6417 11.6138 L1.5116 11.6138 L0.9091 13.8408 L-0.2528 13.8408 L1.9204 6.1485 L3.2114 6.1485 L5.4169 13.8408 Z M2.8241 8.3217 Q2.652 7.5901 2.5659 7.106 Q2.4798 7.6977 2.3185 8.3109 L1.7375 10.624 L3.4158 10.624 Z M7.4395 8.8273 Q7.4395 8.3432 7.4825 7.418 Q7.3642 7.5686 6.9769 7.9559 L6.2561 8.6229 L5.6536 7.9559 L7.5901 6.1592 L8.5261 6.1592 L8.5261 13.8408 L7.4395 13.8408 Z M14.4648 10 Q14.4648 11.9258 13.9591 12.9371 Q13.4535 13.9484 12.3238 13.9484 Q11.2587 13.9484 10.7262 13.0124 Q10.1937 12.0764 10.1937 10 Q10.1937 8.0204 10.7101 7.036 Q11.2265 6.0516 12.3238 6.0516 Q14.4648 6.0516 14.4648 10 Z M11.5331 7.73 Q11.291 8.4615 11.291 10 Q11.291 11.5385 11.5331 12.2647 Q11.7751 12.9909 12.3238 12.9909 Q12.8833 12.9909 13.1253 12.2647 Q13.3674 11.5385 13.3674 10 Q13.3674 8.4615 13.12 7.73 Q12.8725 6.9984 12.3238 6.9984 Q11.7751 6.9984 11.5331 7.73 Z M19.7472 10 Q19.7472 11.9258 19.2415 12.9371 Q18.7359 13.9484 17.6062 13.9484 Q16.5412 13.9484 16.0086 13.0124 Q15.4761 12.0764 15.4761 10 Q15.4761 8.0204 15.9925 7.036 Q16.5089 6.0516 17.6062 6.0516 Q19.7472 6.0516 19.7472 10 Z M16.8155 7.73 Q16.5734 8.4615 16.5734 10 Q16.5734 11.5385 16.8155 12.2647 Q17.0576 12.9909 17.6062 12.9909 Q18.1657 12.9909 18.4077 12.2647 Q18.6498 11.5385 18.6498 10 Q18.6498 8.4615 18.4024 7.73 Q18.1549 6.9984 17.6062 6.9984 Q17.0576 6.9984 16.8155 7.73 Z" fill="#000000"/></g></svg></g><g transform="translate(334 240)"><svg xmlns="http://www.w3.org/2000/svg" xmlns:xlink="http://www.w3.org/1999/xlink" width="60" height="60" viewBox="0 0 20 20" role="img" aria-label="A111" data-rule="default"><title>A111</title><g transform="translate(0 0)"><path d="M4.5342 14.441 L3.8261 11.8696 L1.3665 11.8696 L0.6708 14.441 L-0.6708 14.441 L1.8385 5.559 L3.3292 5.559 L5.8758 14.441 Z M2.882 8.0683 Q2.6832 7.2236 2.5839 6.6646 Q2.4845 7.3478 2.2981 8.0559 L1.6273 10.7267 L3.5652 10.7267 Z M8.2112 8.6522 Q8.2112 8.0932 8.2609 7.0248 Q8.1242 7.1988 7.677 7.646 L6.8447 8.4161 L6.1491 7.646 L8.3851 5.5714 L9.4658 5.5714 L9.4658 14.441 L8.2112 14.441 Z M13.1429 8.6522 Q13.1429 8.0932 13.1925 7.0248 Q13.0559 7.1988 12.6087 7.646 L11.7764 8.4161 L11.0807 7.646 L13.3168 5.5714 L14.3975 5.5714 L14.3975 14.441 L13.1429 14.441 Z M18.0745 8.6522 Q18.0745 8.0932 18.1242 7.0248 Q17.9876 7.1988 17.5404 7.646 L16.7081 8.4161 L16.0124 7.646 L18.2484 5.5714 L19.3292 5.5714 L19.3292 14.441 L18.0745 14.441 Z" fill="none" stroke="#f9f5f0" stroke-width="2" stroke-linejoin="bevel"/><path d="M4.5342 14.441 L3.8261 11.8696 L1.3665 11.8696 L0.6708 14.441 L-0.6708 14.441 L1.8385 5.559 L3.3292 5.559 L5.8758 14.441 Z M2.882 8.0683 Q2.6832 7.2236 2.5839 6.6646 Q2.4845 7.3478 2.2981 8.0559 L1.6273 10.7267 L3.5652 10.7267 Z M8.2112 8.6522 Q8.2112 8.0932 8.2609 7.0248 Q8.1242 7.1988 7.677 7.646 L6.8447 8.4161 L6.1491 7.646 L8.3851 5.5714 L9.4658 5.5714 L9.4658 14.441 L8.2112 14.441 Z M13.1429 8.6522 Q13.1429 8.0932 13.1925 7.0248 Q13.0559 7.1988 12.6087 7.646 L11.7764 8.4161 L11.0807 7.646 L13.3168 5.5714 L14.3975 5.5714 L14.3975 14.441 L13.1429 14.441 Z M18.0745 8.6522 Q18.0745 8.0932 18.1242 7.0248 Q17.9876 7.1988 17.5404 7.646 L16.7081 8.4161 L16.0124 7.646 L18.2484 5.5714 L19.3292 5.5714 L19.3292 14.441 L18.0745 14.441 Z" fill="#000000"/></g></svg></g><g transform="translate(406 240)"><svg xmlns="http://www.w3.org/2000/svg" xmlns:xlink="http://www.w3.org/1999/xlink" width="60" height="60" viewBox="0 0 20 20" role="img" aria-label="M 5" data-rule="default"><title>M 5</title><g transform="translate(0 0)"><path d="M4.8665 14.6996 L2.49 6.8758 L2.4366 6.8758 Q2.53 8.251 2.53 9.0521 L2.53 14.6996 L1.2617 14.6996 L1.2617 5.1669 L3.1842 5.1669 L5.4673 12.6569 L5.5073 12.6569 L7.8037 5.1669 L9.7263 5.1669 L9.7263 14.6996 L8.4045 14.6996 L8.4045 9.0387 Q8.4045 8.4246 8.4846 6.8758 L8.4312 6.8758 L6.028 14.6996 Z M16.6555 8.7717 Q17.8037 8.7717 18.4913 9.5461 Q19.1789 10.3204 19.1789 11.6155 Q19.1789 13.1108 18.3912 13.972 Q17.6035 14.8331 16.1482 14.8331 Q14.9199 14.8331 14.1722 14.3792 L14.1722 13.1108 Q15.0401 13.6716 16.0814 13.6716 Q16.9092 13.6716 17.3565 13.1308 Q17.8037 12.5901 17.8037 11.6822 Q17.8037 9.9065 16.1081 9.9065 Q15.5207 9.9065 14.8264 10.1202 L14.2924 9.6929 L14.5995 5.1669 L18.6182 5.1669 L18.6182 6.3685 L15.7343 6.3685 L15.5474 8.8919 Q16.1482 8.7717 16.6555 8.7717 Z" fill="none" stroke="#f9f5f0" stroke-width="2" stroke-linejoin="bevel"/><path d="M4.8665 14.6996 L2.49 6.8758 L2.4366 6.8758 Q2.53 8.251 2.53 9.0521 L2.53 14.6996 L1.2617 14.6996 L1.2617 5.1669 L3.1842 5.1669 L5.4673 12.6569 L5.5073 12.6569 L7.8037 5.1669 L9.7263 5.1669 L9.7263 14.6996 L8.4045 14.6996 L8.4045 9.0387 Q8.4045 8.4246 8.4846 6.8758 L8.4312 6.8758 L6.028 14.6996 Z M16.6555 8.7717 Q17.8037 8.7717 18.4913 9.5461 Q19.1789 10.3204 19.1789 11.6155 Q19.1789 13.1108 18.3912 13.972 Q17.6035 14.8331 16.1482 14.8331 Q14.9199 14.8331 14.1722 14.3792 L14.1722 13.1108 Q15.0401 13.6716 16.0814 13.6716 Q16.9092 13.6716 17.3565 13.1308 Q17.8037 12.5901 17.8037 11.6822 Q17.8037 9.9065 16.1081 9.9065 Q15.5207 9.9065 14.8264 10.1202 L14.2924 9.6929 L14.5995 5.1669 L18.6182 5.1669 L18.6182 6.3685 L15.7343 6.3685 L15.5474 8.8919 Q16.1482 8.7717 16.6555 8.7717 Z" fill="#000000"/></g></svg></g><g transform="translate(478 240)"><svg xmlns="http://www.w3.org/2000/svg" xmlns:xlink="http://www.w3.org/1999/xlink" width="60" height="60" viewBox="0 0 20 20" role="img" aria-label="V 7" data-rule="default"><title>V 7</title><g transform="translate(0 0)"><path d="M9.181 5.002 L6.409 14.998 L4.813 14.998 L2.069 5.002 L3.553 5.002 L5.191 11.386 Q5.471 12.394 5.611 13.458 Q5.779 12.38 6.045 11.372 L7.697 5.002 Z M13.059 14.998 L16.223 6.276 L12.191 6.276 L12.191 5.002 L17.693 5.002 L17.693 6.024 L14.557 14.998 Z" fill="none" stroke="#f9f5f0" stroke-width="2" stroke-linejoin="bevel"/><path d="M9.181 5.002 L6.409 14.998 L4.813 14.998 L2.069 5.002 L3.553 5.002 L5.191 11.386 Q5.471 12.394 5.611 13.458 Q5.779 12.38 6.045 11.372 L7.697 5.002 Z M13.059 14.998 L16.223 6.276 L12.191 6.276 L12.191 5.002 L17.693 5.002 L17.693 6.024 L14.557 14.998 Z" fill="#000000"/></g></svg></g><g transform="translate(550 213)"><svg xmlns="http://www.w3.org/2000/svg" xmlns:xlink="http://www.w3.org/1999/xlink" width="60" height="87" viewBox="0 0 20 29" role="img" aria-label="ALT 1" data-rule="US:US:Alternate"><title>ALT 1</title><path d="M7.2256 7.7148 L6.6333 5.5638 L4.5759 5.5638 L3.994 7.7148 L2.8718 7.7148 L4.9708 0.2852 L6.2177 0.2852 L8.3478 7.7148 Z M5.8436 2.3842 Q5.6774 1.6776 5.5942 1.21 Q5.5111 1.7815 5.3552 2.3738 L4.7941 4.6079 L6.4151 4.6079 Z M9.1583 7.7148 L9.1583 0.2956 L10.2182 0.2956 L10.2182 6.7796 L12.5873 6.7796 L12.5873 7.7148 Z M15.341 7.7148 L14.2915 7.7148 L14.2915 1.2308 L12.6289 1.2308 L12.6289 0.2956 L17.0035 0.2956 L17.0035 1.2308 L15.341 1.2308 Z" fill="none" stroke="#f9f5f0" stroke-width="2" stroke-linejoin="bevel"/><g transform="translate(0 9)"><svg width="20" height="20" viewBox="0 0 20 20" preserveAspectRatio="none" overflow="visible">
    <path fill="#ffffff" fill-rule="evenodd" stroke="#000000" stroke-miterlimit="3.864" stroke-linejoin="round" d="M 9.9997 0.5001 C 10.7716 1.1577 11.7725 1.5547 12.8661 1.5547 C 13.9596 1.5547 14.9605 1.1577 15.7324 0.5 L 19.4996 4.2672 C 18.8064 5.2526 18.3993 6.454 18.3993 7.7504 C 18.3993 8.6829 18.6098 9.566 18.986 10.3551 C 19.311 11.0373 19.4996 11.8147 19.4996 12.6208 C 19.4996 15.5155 17.153 17.862 14.2584 17.862 L 13.4357 17.862 C 12.0485 17.862 10.8106 18.5007 9.9997 19.5 C 9.1889 18.5007 7.9509 17.862 6.5637 17.862 L 5.7411 17.862 C 2.8463 17.862 0.4999 15.5154 0.4999 12.6208 C 0.4999 11.8148 0.6884 11.0373 1.0135 10.3551 C 1.3896 9.566 1.6002 8.6828 1.6002 7.7504 C 1.6002 6.454 1.1931 5.2527 0.4999 4.2672 L 4.2671 0.5 C 5.039 1.1576 6.0399 1.5547 7.1334 1.5547 C 8.227 1.5547 9.2278 1.1578 9.9998 0.5001 Z"/>
</svg>
<path d="M9.853 7.974 Q9.853 7.344 9.909 6.14 Q9.755 6.336 9.251 6.84 L8.313 7.708 L7.529 6.84 L10.049 4.502 L11.267 4.502 L11.267 14.498 L9.853 14.498 Z" fill="#000000"/></g><path d="M7.2256 7.7148 L6.6333 5.5638 L4.5759 5.5638 L3.994 7.7148 L2.8718 7.7148 L4.9708 0.2852 L6.2177 0.2852 L8.3478 7.7148 Z M5.8436 2.3842 Q5.6774 1.6776 5.5942 1.21 Q5.5111 1.7815 5.3552 2.3738 L4.7941 4.6079 L6.4151 4.6079 Z M9.1583 7.7148 L9.1583 0.2956 L10.2182 0.2956 L10.2182 6.7796 L12.5873 6.7796 L12.5873 7.7148 Z M15.341 7.7148 L14.2915 7.7148 L14.2915 1.2308 L12.6289 1.2308 L12.6289 0.2956 L17.0035 0.2956 L17.0035 1.2308 L15.341 1.2308 Z" fill="#000000"/></svg></g><g transform="translate(622 240)"><svg xmlns="http://www.w3.org/2000/svg" xmlns:xlink="http://www.w3.org/1999/xlink" width="93" height="60" viewBox="0 0 31 20" role="img" aria-label="609" data-rule="US:NJ:CR"><title>609</title><g transform="translate(0 0)"><path d="M15.6388 0.5 L2.5962 3.0846 A2 2 0 0 0 1.0531 5.5641 L4.7872 19.5 L26.4904 19.5 L26.4904 19.5 L30.2245 5.5641 A2 2 0 0 0 28.6814 3.0846 Z" fill="#003f87" stroke="#ffcd00" stroke-width="1" stroke-linejoin="miter" stroke-miterlimit="10"/><path d="M6.0558 10.506 Q6.0558 9.176 6.2448 8.147 Q6.4338 7.118 6.8608 6.299 Q7.2878 5.48 8.0438 5.046 Q8.7998 4.612 9.8638 4.612 Q10.4238 4.612 11.0258 4.738 L11.0258 5.97 Q10.5218 5.816 9.9338 5.816 Q7.5398 5.816 7.4138 9.512 L7.4698 9.512 Q8.0298 8.378 9.2618 8.378 Q10.3678 8.378 10.9838 9.239 Q11.5998 10.1 11.5998 11.528 Q11.5998 13.04 10.8928 13.964 Q10.1858 14.888 8.9118 14.888 Q7.5818 14.888 6.8188 13.754 Q6.0558 12.62 6.0558 10.506 Z M8.8978 13.656 Q9.5138 13.656 9.8568 13.131 Q10.1998 12.606 10.1998 11.556 Q10.1998 9.568 8.9118 9.568 Q8.2678 9.568 7.8758 10.058 Q7.4838 10.548 7.4838 11.22 Q7.4838 12.158 7.8478 12.907 Q8.2118 13.656 8.8978 13.656 Z M18.4178 9.75 Q18.4178 12.256 17.7598 13.572 Q17.1018 14.888 15.6318 14.888 Q14.2458 14.888 13.5528 13.67 Q12.8598 12.452 12.8598 9.75 Q12.8598 7.174 13.5318 5.893 Q14.2038 4.612 15.6318 4.612 Q18.4178 4.612 18.4178 9.75 Z M14.6028 6.796 Q14.2878 7.748 14.2878 9.75 Q14.2878 11.752 14.6028 12.697 Q14.9178 13.642 15.6318 13.642 Q16.3598 13.642 16.6748 12.697 Q16.9898 11.752 16.9898 9.75 Q16.9898 7.748 16.6678 6.796 Q16.3458 5.844 15.6318 5.844 Q14.9178 5.844 14.6028 6.796 Z M25.2358 8.952 Q25.2358 14.888 21.3998 14.888 Q20.7418 14.888 20.2238 14.748 L20.2238 13.516 Q20.6998 13.684 21.3438 13.684 Q23.7518 13.684 23.8778 9.988 L23.8078 9.988 Q23.2478 11.122 22.0158 11.122 Q20.9098 11.122 20.3008 10.268 Q19.6918 9.414 19.6918 7.986 Q19.6918 6.46 20.4058 5.536 Q21.1198 4.612 22.4218 4.612 Q23.7238 4.612 24.4798 5.739 Q25.2358 6.866 25.2358 8.952 Z M22.4078 5.844 Q21.7918 5.844 21.4348 6.383 Q21.0778 6.922 21.0778 7.958 Q21.0778 9.932 22.3798 9.932 Q23.0378 9.932 23.4158 9.421 Q23.7938 8.91 23.7938 8.224 Q23.7938 7.342 23.4578 6.6 Q23.1218 5.858 22.4078 5.844 Z" fill="#ffcd00"/></g></svg></g><text x="10" y="360" fill="#f6f1ea" font-family="sans-serif" font-size="16">miter 2</text><g transform="translate(190 340)"><svg xmlns="http://www.w3.org/2000/svg" xmlns:xlink="http://www.w3.org/1999/xlink" width="60" height="60" viewBox="0 0 20 20" role="img" aria-label="A 115" data-rule="default"><title>A 115</title><g transform="translate(0 0)"><path d="M4.0625 13.6117 L3.4785 11.4908 L1.4498 11.4908 L0.876 13.6117 L-0.2305 13.6117 L1.8391 6.2859 L3.0686 6.2859 L5.1691 13.6117 Z M2.6998 8.3555 Q2.5359 7.6588 2.4539 7.1977 Q2.3719 7.7613 2.2182 8.3453 L1.665 10.5482 L3.2633 10.5482 Z M9.2059 8.8371 Q9.2059 8.376 9.2469 7.4949 Q9.1342 7.6383 8.7654 8.0072 L8.0789 8.6424 L7.5051 8.0072 L9.3494 6.2961 L10.2408 6.2961 L10.2408 13.6117 L9.2059 13.6117 Z M13.2736 8.8371 Q13.2736 8.376 13.3145 7.4949 Q13.2018 7.6383 12.833 8.0072 L12.1465 8.6424 L11.5727 8.0072 L13.417 6.2961 L14.3084 6.2961 L14.3084 13.6117 L13.2736 13.6117 Z M17.833 9.0625 Q18.7141 9.0625 19.2418 9.6568 Q19.7695 10.251 19.7695 11.2449 Q19.7695 12.3924 19.165 13.0533 Q18.5605 13.7141 17.4436 13.7141 Q16.501 13.7141 15.9273 13.3658 L15.9273 12.3924 Q16.5932 12.8227 17.3924 12.8227 Q18.0277 12.8227 18.3709 12.4078 Q18.7141 11.9928 18.7141 11.2961 Q18.7141 9.9334 17.4129 9.9334 Q16.9621 9.9334 16.4293 10.0973 L16.0195 9.7695 L16.2551 6.2961 L19.3391 6.2961 L19.3391 7.2182 L17.126 7.2182 L16.9826 9.1547 Q17.4436 9.0625 17.833 9.0625 Z" fill="none" stroke="#f9f5f0" stroke-width="2" stroke-linejoin="miter" stroke-miterlimit="2"/><path d="M4.0625 13.6117 L3.4785 11.4908 L1.4498 11.4908 L0.876 13.6117 L-0.2305 13.6117 L1.8391 6.2859 L3.0686 6.2859 L5.1691 13.6117 Z M2.6998 8.3555 Q2.5359 7.6588 2.4539 7.1977 Q2.3719 7.7613 2.2182 8.3453 L1.665 10.5482 L3.2633 10.5482 Z M9.2059 8.8371 Q9.2059 8.376 9.2469 7.4949 Q9.1342 7.6383 8.7654 8.0072 L8.0789 8.6424 L7.5051 8.0072 L9.3494 6.2961 L10.2408 6.2961 L10.2408 13.6117 L9.2059 13.6117 Z M13.2736 8.8371 Q13.2736 8.376 13.3145 7.4949 Q13.2018 7.6383 12.833 8.0072 L12.1465 8.6424 L11.5727 8.0072 L13.417 6.2961 L14.3084 6.2961 L14.3084 13.6117 L13.2736 13.6117 Z M17.833 9.0625 Q18.7141 9.0625 19.2418 9.6568 Q19.7695 10.251 19.7695 11.2449 Q19.7695 12.3924 19.165 13.0533 Q18.5605 13.7141 17.4436 13.7141 Q16.501 13.7141 15.9273 13.3658 L15.9273 12.3924 Q16.5932 12.8227 17.3924 12.8227 Q18.0277 12.8227 18.3709 12.4078 Q18.7141 11.9928 18.7141 11.2961 Q18.7141 9.9334 17.4129 9.9334 Q16.9621 9.9334 16.4293 10.0973 L16.0195 9.7695 L16.2551 6.2961 L19.3391 6.2961 L19.3391 7.2182 L17.126 7.2182 L16.9826 9.1547 Q17.4436 9.0625 17.833 9.0625 Z" fill="#000000"/></g></svg></g><g transform="translate(262 340)"><svg xmlns="http://www.w3.org/2000/svg" xmlns:xlink="http://www.w3.org/1999/xlink" width="60" height="60" viewBox="0 0 20 20" role="img" aria-label="A100" data-rule="default"><title>A100</title><g transform="translate(0 0)"><path d="M4.255 13.8408 L3.6417 11.6138 L1.5116 11.6138 L0.9091 13.8408 L-0.2528 13.8408 L1.9204 6.1485 L3.2114 6.1485 L5.4169 13.8408 Z M2.8241 8.3217 Q2.652 7.5901 2.5659 7.106 Q2.4798 7.6977 2.3185 8.3109 L1.7375 10.624 L3.4158 10.624 Z M7.4395 8.8273 Q7.4395 8.3432 7.4825 7.418 Q7.3642 7.5686 6.9769 7.9559 L6.2561 8.6229 L5.6536 7.9559 L7.5901 6.1592 L8.5261 6.1592 L8.5261 13.8408 L7.4395 13.8408 Z M14.4648 10 Q14.4648 11.9258 13.9591 12.9371 Q13.4535 13.9484 12.3238 13.9484 Q11.2587 13.9484 10.7262 13.0124 Q10.1937 12.0764 10.1937 10 Q10.1937 8.0204 10.7101 7.036 Q11.2265 6.0516 12.3238 6.0516 Q14.4648 6.0516 14.4648 10 Z M11.5331 7.73 Q11.291 8.4615 11.291 10 Q11.291 11.5385 11.5331 12.2647 Q11.7751 12.9909 12.3238 12.9909 Q12.8833 12.9909 13.1253 12.2647 Q13.3674 11.5385 13.3674 10 Q13.3674 8.4615 13.12 7.73 Q12.8725 6.9984 12.3238 6.9984 Q11.7751 6.9984 11.5331 7.73 Z M19.7472 10 Q19.7472 11.9258 19.2415 12.9371 Q18.7359 13.9484 17.6062 13.9484 Q16.5412 13.9484 16.0086 13.0124 Q15.4761 12.0764 15.4761 10 Q15.4761 8.0204 15.9925 7.036 Q16.5089 6.0516 17.6062 6.0516 Q19.7472 6.0516 19.7472 10 Z M16.8155 7.73 Q16.5734 8.4615 16.5734 10 Q16.5734 11.5385 16.8155 12.2647 Q17.0576 12.9909 17.6062 12.9909 Q18.1657 12.9909 18.4077 12.2647 Q18.6498 11.5385 18.6498 10 Q18.6498 8.4615 18.4024 7.73 Q18.1549 6.9984 17.6062 6.9984 Q17.0576 6.9984 16.8155 7.73 Z" fill="none" stroke="#f9f5f0" stroke-width="2" stroke-linejoin="miter" stroke-miterlimit="2"/><path d="M4.255 13.8408 L3.6417 11.6138 L1.5116 11.6138 L0.9091 13.8408 L-0.2528 13.8408 L1.9204 6.1485 L3.2114 6.1485 L5.4169 13.8408 Z M2.8241 8.3217 Q2.652 7.5901 2.5659 7.106 Q2.4798 7.6977 2.3185 8.3109 L1.7375 10.624 L3.4158 10.624 Z M7.4395 8.8273 Q7.4395 8.3432 7.4825 7.418 Q7.3642 7.5686 6.9769 7.9559 L6.2561 8.6229 L5.6536 7.9559 L7.5901 6.1592 L8.5261 6.1592 L8.5261 13.8408 L7.4395 13.8408 Z M14.4648 10 Q14.4648 11.9258 13.9591 12.9371 Q13.4535 13.9484 12.3238 13.9484 Q11.2587 13.9484 10.7262 13.0124 Q10.1937 12.0764 10.1937 10 Q10.1937 8.0204 10.7101 7.036 Q11.2265 6.0516 12.3238 6.0516 Q14.4648 6.0516 14.4648 10 Z M11.5331 7.73 Q11.291 8.4615 11.291 10 Q11.291 11.5385 11.5331 12.2647 Q11.7751 12.9909 12.3238 12.9909 Q12.8833 12.9909 13.1253 12.2647 Q13.3674 11.5385 13.3674 10 Q13.3674 8.4615 13.12 7.73 Q12.8725 6.9984 12.3238 6.9984 Q11.7751 6.9984 11.5331 7.73 Z M19.7472 10 Q19.7472 11.9258 19.2415 12.9371 Q18.7359 13.9484 17.6062 13.9484 Q16.5412 13.9484 16.0086 13.0124 Q15.4761 12.0764 15.4761 10 Q15.4761 8.0204 15.9925 7.036 Q16.5089 6.0516 17.6062 6.0516 Q19.7472 6.0516 19.7472 10 Z M16.8155 7.73 Q16.5734 8.4615 16.5734 10 Q16.5734 11.5385 16.8155 12.2647 Q17.0576 12.9909 17.6062 12.9909 Q18.1657 12.9909 18.4077 12.2647 Q18.6498 11.5385 18.6498 10 Q18.6498 8.4615 18.4024 7.73 Q18.1549 6.9984 17.6062 6.9984 Q17.0576 6.9984 16.8155 7.73 Z" fill="#000000"/></g></svg></g><g transform="translate(334 340)"><svg xmlns="http://www.w3.org/2000/svg" xmlns:xlink="http://www.w3.org/1999/xlink" width="60" height="60" viewBox="0 0 20 20" role="img" aria-label="A111" data-rule="default"><title>A111</title><g transform="translate(0 0)"><path d="M4.5342 14.441 L3.8261 11.8696 L1.3665 11.8696 L0.6708 14.441 L-0.6708 14.441 L1.8385 5.559 L3.3292 5.559 L5.8758 14.441 Z M2.882 8.0683 Q2.6832 7.2236 2.5839 6.6646 Q2.4845 7.3478 2.2981 8.0559 L1.6273 10.7267 L3.5652 10.7267 Z M8.2112 8.6522 Q8.2112 8.0932 8.2609 7.0248 Q8.1242 7.1988 7.677 7.646 L6.8447 8.4161 L6.1491 7.646 L8.3851 5.5714 L9.4658 5.5714 L9.4658 14.441 L8.2112 14.441 Z M13.1429 8.6522 Q13.1429 8.0932 13.1925 7.0248 Q13.0559 7.1988 12.6087 7.646 L11.7764 8.4161 L11.0807 7.646 L13.3168 5.5714 L14.3975 5.5714 L14.3975 14.441 L13.1429 14.441 Z M18.0745 8.6522 Q18.0745 8.0932 18.1242 7.0248 Q17.9876 7.1988 17.5404 7.646 L16.7081 8.4161 L16.0124 7.646 L18.2484 5.5714 L19.3292 5.5714 L19.3292 14.441 L18.0745 14.441 Z" fill="none" stroke="#f9f5f0" stroke-width="2" stroke-linejoin="miter" stroke-miterlimit="2"/><path d="M4.5342 14.441 L3.8261 11.8696 L1.3665 11.8696 L0.6708 14.441 L-0.6708 14.441 L1.8385 5.559 L3.3292 5.559 L5.8758 14.441 Z M2.882 8.0683 Q2.6832 7.2236 2.5839 6.6646 Q2.4845 7.3478 2.2981 8.0559 L1.6273 10.7267 L3.5652 10.7267 Z M8.2112 8.6522 Q8.2112 8.0932 8.2609 7.0248 Q8.1242 7.1988 7.677 7.646 L6.8447 8.4161 L6.1491 7.646 L8.3851 5.5714 L9.4658 5.5714 L9.4658 14.441 L8.2112 14.441 Z M13.1429 8.6522 Q13.1429 8.0932 13.1925 7.0248 Q13.0559 7.1988 12.6087 7.646 L11.7764 8.4161 L11.0807 7.646 L13.3168 5.5714 L14.3975 5.5714 L14.3975 14.441 L13.1429 14.441 Z M18.0745 8.6522 Q18.0745 8.0932 18.1242 7.0248 Q17.9876 7.1988 17.5404 7.646 L16.7081 8.4161 L16.0124 7.646 L18.2484 5.5714 L19.3292 5.5714 L19.3292 14.441 L18.0745 14.441 Z" fill="#000000"/></g></svg></g><g transform="translate(406 340)"><svg xmlns="http://www.w3.org/2000/svg" xmlns:xlink="http://www.w3.org/1999/xlink" width="60" height="60" viewBox="0 0 20 20" role="img" aria-label="M 5" data-rule="default"><title>M 5</title><g transform="translate(0 0)"><path d="M4.8665 14.6996 L2.49 6.8758 L2.4366 6.8758 Q2.53 8.251 2.53 9.0521 L2.53 14.6996 L1.2617 14.6996 L1.2617 5.1669 L3.1842 5.1669 L5.4673 12.6569 L5.5073 12.6569 L7.8037 5.1669 L9.7263 5.1669 L9.7263 14.6996 L8.4045 14.6996 L8.4045 9.0387 Q8.4045 8.4246 8.4846 6.8758 L8.4312 6.8758 L6.028 14.6996 Z M16.6555 8.7717 Q17.8037 8.7717 18.4913 9.5461 Q19.1789 10.3204 19.1789 11.6155 Q19.1789 13.1108 18.3912 13.972 Q17.6035 14.8331 16.1482 14.8331 Q14.9199 14.8331 14.1722 14.3792 L14.1722 13.1108 Q15.0401 13.6716 16.0814 13.6716 Q16.9092 13.6716 17.3565 13.1308 Q17.8037 12.5901 17.8037 11.6822 Q17.8037 9.9065 16.1081 9.9065 Q15.5207 9.9065 14.8264 10.1202 L14.2924 9.6929 L14.5995 5.1669 L18.6182 5.1669 L18.6182 6.3685 L15.7343 6.3685 L15.5474 8.8919 Q16.1482 8.7717 16.6555 8.7717 Z" fill="none" stroke="#f9f5f0" stroke-width="2" stroke-linejoin="miter" stroke-miterlimit="2"/><path d="M4.8665 14.6996 L2.49 6.8758 L2.4366 6.8758 Q2.53 8.251 2.53 9.0521 L2.53 14.6996 L1.2617 14.6996 L1.2617 5.1669 L3.1842 5.1669 L5.4673 12.6569 L5.5073 12.6569 L7.8037 5.1669 L9.7263 5.1669 L9.7263 14.6996 L8.4045 14.6996 L8.4045 9.0387 Q8.4045 8.4246 8.4846 6.8758 L8.4312 6.8758 L6.028 14.6996 Z M16.6555 8.7717 Q17.8037 8.7717 18.4913 9.5461 Q19.1789 10.3204 19.1789 11.6155 Q19.1789 13.1108 18.3912 13.972 Q17.6035 14.8331 16.1482 14.8331 Q14.9199 14.8331 14.1722 14.3792 L14.1722 13.1108 Q15.0401 13.6716 16.0814 13.6716 Q16.9092 13.6716 17.3565 13.1308 Q17.8037 12.5901 17.8037 11.6822 Q17.8037 9.9065 16.1081 9.9065 Q15.5207 9.9065 14.8264 10.1202 L14.2924 9.6929 L14.5995 5.1669 L18.6182 5.1669 L18.6182 6.3685 L15.7343 6.3685 L15.5474 8.8919 Q16.1482 8.7717 16.6555 8.7717 Z" fill="#000000"/></g></svg></g><g transform="translate(478 340)"><svg xmlns="http://www.w3.org/2000/svg" xmlns:xlink="http://www.w3.org/1999/xlink" width="60" height="60" viewBox="0 0 20 20" role="img" aria-label="V 7" data-rule="default"><title>V 7</title><g transform="translate(0 0)"><path d="M9.181 5.002 L6.409 14.998 L4.813 14.998 L2.069 5.002 L3.553 5.002 L5.191 11.386 Q5.471 12.394 5.611 13.458 Q5.779 12.38 6.045 11.372 L7.697 5.002 Z M13.059 14.998 L16.223 6.276 L12.191 6.276 L12.191 5.002 L17.693 5.002 L17.693 6.024 L14.557 14.998 Z" fill="none" stroke="#f9f5f0" stroke-width="2" stroke-linejoin="miter" stroke-miterlimit="2"/><path d="M9.181 5.002 L6.409 14.998 L4.813 14.998 L2.069 5.002 L3.553 5.002 L5.191 11.386 Q5.471 12.394 5.611 13.458 Q5.779 12.38 6.045 11.372 L7.697 5.002 Z M13.059 14.998 L16.223 6.276 L12.191 6.276 L12.191 5.002 L17.693 5.002 L17.693 6.024 L14.557 14.998 Z" fill="#000000"/></g></svg></g><g transform="translate(550 313)"><svg xmlns="http://www.w3.org/2000/svg" xmlns:xlink="http://www.w3.org/1999/xlink" width="60" height="87" viewBox="0 0 20 29" role="img" aria-label="ALT 1" data-rule="US:US:Alternate"><title>ALT 1</title><path d="M7.2256 7.7148 L6.6333 5.5638 L4.5759 5.5638 L3.994 7.7148 L2.8718 7.7148 L4.9708 0.2852 L6.2177 0.2852 L8.3478 7.7148 Z M5.8436 2.3842 Q5.6774 1.6776 5.5942 1.21 Q5.5111 1.7815 5.3552 2.3738 L4.7941 4.6079 L6.4151 4.6079 Z M9.1583 7.7148 L9.1583 0.2956 L10.2182 0.2956 L10.2182 6.7796 L12.5873 6.7796 L12.5873 7.7148 Z M15.341 7.7148 L14.2915 7.7148 L14.2915 1.2308 L12.6289 1.2308 L12.6289 0.2956 L17.0035 0.2956 L17.0035 1.2308 L15.341 1.2308 Z" fill="none" stroke="#f9f5f0" stroke-width="2" stroke-linejoin="miter" stroke-miterlimit="2"/><g transform="translate(0 9)"><svg width="20" height="20" viewBox="0 0 20 20" preserveAspectRatio="none" overflow="visible">
    <path fill="#ffffff" fill-rule="evenodd" stroke="#000000" stroke-miterlimit="3.864" stroke-linejoin="round" d="M 9.9997 0.5001 C 10.7716 1.1577 11.7725 1.5547 12.8661 1.5547 C 13.9596 1.5547 14.9605 1.1577 15.7324 0.5 L 19.4996 4.2672 C 18.8064 5.2526 18.3993 6.454 18.3993 7.7504 C 18.3993 8.6829 18.6098 9.566 18.986 10.3551 C 19.311 11.0373 19.4996 11.8147 19.4996 12.6208 C 19.4996 15.5155 17.153 17.862 14.2584 17.862 L 13.4357 17.862 C 12.0485 17.862 10.8106 18.5007 9.9997 19.5 C 9.1889 18.5007 7.9509 17.862 6.5637 17.862 L 5.7411 17.862 C 2.8463 17.862 0.4999 15.5154 0.4999 12.6208 C 0.4999 11.8148 0.6884 11.0373 1.0135 10.3551 C 1.3896 9.566 1.6002 8.6828 1.6002 7.7504 C 1.6002 6.454 1.1931 5.2527 0.4999 4.2672 L 4.2671 0.5 C 5.039 1.1576 6.0399 1.5547 7.1334 1.5547 C 8.227 1.5547 9.2278 1.1578 9.9998 0.5001 Z"/>
</svg>
<path d="M9.853 7.974 Q9.853 7.344 9.909 6.14 Q9.755 6.336 9.251 6.84 L8.313 7.708 L7.529 6.84 L10.049 4.502 L11.267 4.502 L11.267 14.498 L9.853 14.498 Z" fill="#000000"/></g><path d="M7.2256 7.7148 L6.6333 5.5638 L4.5759 5.5638 L3.994 7.7148 L2.8718 7.7148 L4.9708 0.2852 L6.2177 0.2852 L8.3478 7.7148 Z M5.8436 2.3842 Q5.6774 1.6776 5.5942 1.21 Q5.5111 1.7815 5.3552 2.3738 L4.7941 4.6079 L6.4151 4.6079 Z M9.1583 7.7148 L9.1583 0.2956 L10.2182 0.2956 L10.2182 6.7796 L12.5873 6.7796 L12.5873 7.7148 Z M15.341 7.7148 L14.2915 7.7148 L14.2915 1.2308 L12.6289 1.2308 L12.6289 0.2956 L17.0035 0.2956 L17.0035 1.2308 L15.341 1.2308 Z" fill="#000000"/></svg></g><g transform="translate(622 340)"><svg xmlns="http://www.w3.org/2000/svg" xmlns:xlink="http://www.w3.org/1999/xlink" width="93" height="60" viewBox="0 0 31 20" role="img" aria-label="609" data-rule="US:NJ:CR"><title>609</title><g transform="translate(0 0)"><path d="M15.6388 0.5 L2.5962 3.0846 A2 2 0 0 0 1.0531 5.5641 L4.7872 19.5 L26.4904 19.5 L26.4904 19.5 L30.2245 5.5641 A2 2 0 0 0 28.6814 3.0846 Z" fill="#003f87" stroke="#ffcd00" stroke-width="1" stroke-linejoin="miter" stroke-miterlimit="10"/><path d="M6.0558 10.506 Q6.0558 9.176 6.2448 8.147 Q6.4338 7.118 6.8608 6.299 Q7.2878 5.48 8.0438 5.046 Q8.7998 4.612 9.8638 4.612 Q10.4238 4.612 11.0258 4.738 L11.0258 5.97 Q10.5218 5.816 9.9338 5.816 Q7.5398 5.816 7.4138 9.512 L7.4698 9.512 Q8.0298 8.378 9.2618 8.378 Q10.3678 8.378 10.9838 9.239 Q11.5998 10.1 11.5998 11.528 Q11.5998 13.04 10.8928 13.964 Q10.1858 14.888 8.9118 14.888 Q7.5818 14.888 6.8188 13.754 Q6.0558 12.62 6.0558 10.506 Z M8.8978 13.656 Q9.5138 13.656 9.8568 13.131 Q10.1998 12.606 10.1998 11.556 Q10.1998 9.568 8.9118 9.568 Q8.2678 9.568 7.8758 10.058 Q7.4838 10.548 7.4838 11.22 Q7.4838 12.158 7.8478 12.907 Q8.2118 13.656 8.8978 13.656 Z M18.4178 9.75 Q18.4178 12.256 17.7598 13.572 Q17.1018 14.888 15.6318 14.888 Q14.2458 14.888 13.5528 13.67 Q12.8598 12.452 12.8598 9.75 Q12.8598 7.174 13.5318 5.893 Q14.2038 4.612 15.6318 4.612 Q18.4178 4.612 18.4178 9.75 Z M14.6028 6.796 Q14.2878 7.748 14.2878 9.75 Q14.2878 11.752 14.6028 12.697 Q14.9178 13.642 15.6318 13.642 Q16.3598 13.642 16.6748 12.697 Q16.9898 11.752 16.9898 9.75 Q16.9898 7.748 16.6678 6.796 Q16.3458 5.844 15.6318 5.844 Q14.9178 5.844 14.6028 6.796 Z M25.2358 8.952 Q25.2358 14.888 21.3998 14.888 Q20.7418 14.888 20.2238 14.748 L20.2238 13.516 Q20.6998 13.684 21.3438 13.684 Q23.7518 13.684 23.8778 9.988 L23.8078 9.988 Q23.2478 11.122 22.0158 11.122 Q20.9098 11.122 20.3008 10.268 Q19.6918 9.414 19.6918 7.986 Q19.6918 6.46 20.4058 5.536 Q21.1198 4.612 22.4218 4.612 Q23.7238 4.612 24.4798 5.739 Q25.2358 6.866 25.2358 8.952 Z M22.4078 5.844 Q21.7918 5.844 21.4348 6.383 Q21.0778 6.922 21.0778 7.958 Q21.0778 9.932 22.3798 9.932 Q23.0378 9.932 23.4158 9.421 Q23.7938 8.91 23.7938 8.224 Q23.7938 7.342 23.4578 6.6 Q23.1218 5.858 22.4078 5.844 Z" fill="#ffcd00"/></g></svg></g></svg>
